<?xml version="1.0" encoding="utf-8"?>
<!-- Generator: Adobe Illustrator 24.1.2, SVG Export Plug-In . SVG Version: 6.00 Build 0)  -->
<svg version="1.1" id="Layer_1" xmlns="http://www.w3.org/2000/svg" xmlns:xlink="http://www.w3.org/1999/xlink" x="0px" y="0px"
	 viewBox="0 0 234 89" style="enable-background:new 0 0 234 89;" xml:space="preserve">
<g>
	<path d="M11.2,43c-0.3-1-0.5-1.9-0.5-3c0-2.1,0.6-3.7,1.8-4.8c1.2-1.1,2.7-1.7,4.5-1.7c-0.3-1.4-0.5-2.8-0.5-4.5
		c0-4.8,1.2-9,3.7-12.4c2.5-3.5,6-5.2,10.6-5.2c2.5,0,4.5,0.7,5.9,2.2c1.4,1.5,2.1,3.2,2.1,5.2c0,2-0.7,3.6-2,5
		c-1.4,1.4-3.1,2.1-5.3,2.1s-4.1-0.5-5.8-1.6l-0.9,0.7l2.3,7.8c2.3-0.3,4.6-0.9,7-1.8c0.3,1,0.5,2.1,0.5,3.5c0,1.4-0.4,2.7-1.2,3.9
		c-0.8,1.2-2,2-3.5,2.3c-2.8,12.9-4.2,22.1-4.2,27.6c0,2.8,0.7,4.8,2,6c-3.2,2.1-6,3.2-8.5,3.2c-4.9,0-7.4-3-7.4-9.1
		c0-3.8,1.4-12.6,4.1-26.6C13.9,42.3,12.3,42.6,11.2,43z"/>
	<path d="M71.3,29.4c2.4,0,4.6,1,6.3,3c1.8,2,2.7,4.8,2.7,8.6s-0.7,7.2-2,10.4c-1.3,3.2-3,5.8-5.2,7.8c-2.1,2-4.6,3.6-7.3,4.7
		c-2.7,1.1-5.5,1.7-8.3,1.7c-5.7,0-10.3-1.6-13.6-4.7c-3.3-3.2-5-7.3-5-12.5c0-7,2.3-12.8,6.8-17.2c4.5-4.4,10.3-6.6,17.3-6.6
		c1.6,0,3.2,0.2,4.7,0.5c0.5,1.4,0.7,3.1,0.8,4.9C69.5,29.6,70.4,29.4,71.3,29.4z M63.2,38.5c0-1.2,0.3-2.6,0.9-4.1
		c0.6-1.5,1.5-2.8,2.9-3.7c-5.8,1.2-9.8,3.6-11.9,7c-1.9,3-2.8,6-2.8,9.2s0.6,5.7,1.9,7.6c1.3,1.9,2.9,2.9,5,2.9
		c4.5,0,7.6-2.9,9.4-8.7C65,46.4,63.2,43.1,63.2,38.5z"/>
	<path d="M118.2,29.4c2.4,0,4.6,1,6.3,3c1.8,2,2.7,4.8,2.7,8.6s-0.7,7.2-2,10.4c-1.3,3.2-3,5.8-5.2,7.8c-2.1,2-4.6,3.6-7.3,4.7
		c-2.7,1.1-5.5,1.7-8.3,1.7c-5.7,0-10.3-1.6-13.6-4.7c-3.3-3.2-5-7.3-5-12.5c0-7,2.3-12.8,6.8-17.2c4.5-4.4,10.3-6.6,17.3-6.6
		c1.6,0,3.2,0.2,4.7,0.5c0.5,1.4,0.7,3.1,0.8,4.9C116.4,29.6,117.3,29.4,118.2,29.4z M110.1,38.5c0-1.2,0.3-2.6,0.9-4.1
		c0.6-1.5,1.5-2.8,2.9-3.7c-5.8,1.2-9.8,3.6-11.9,7c-1.9,3-2.8,6-2.8,9.2s0.6,5.7,1.9,7.6c1.3,1.9,2.9,2.9,5,2.9
		c4.5,0,7.6-2.9,9.4-8.7C111.9,46.4,110.1,43.1,110.1,38.5z"/>
	<path d="M158.2,59l-0.7-0.3c-3.4,4.5-7.5,6.8-12.2,6.8c-3.5,0-6.5-1.4-8.9-4.2c-2.4-2.8-3.6-6.5-3.6-11.3c0-5.9,2.1-11.2,6.2-16
		c2-2.4,4.7-4.3,8.1-5.7c3.4-1.5,7.1-2.2,11.3-2.2c0.8,0,2.2,0.1,4.2,0.3c0.1-0.9,0.3-2,0.6-3.3l-3.7-5.2c5.5-3.2,9.8-4.8,12.9-4.8
		c1.8,0,3.1,0.4,3.8,1.1c0.7,0.7,1.1,2.1,1.1,4.1s-1,7.6-2.9,16.8c-1.9,9.2-2.9,15.8-2.9,19.7s0.7,6.4,2,7.6c-2.5,2.1-5,3.2-7.6,3.2
		c-2.6,0-4.6-0.7-5.8-2C158.8,62.1,158.2,60.6,158.2,59z M145.1,47.5c0,2.5,0.6,4.5,1.9,5.9c1.3,1.4,2.9,2.2,4.8,2.2
		c2.5,0,4.8-1.2,6.8-3.5c0.7-7.8,1.7-14.5,3-20.2c-5,0-9,1.6-12,4.9C146.6,39.9,145.1,43.5,145.1,47.5z"/>
	<path d="M214.2,29.4c2.4,0,4.6,1,6.3,3c1.8,2,2.7,4.8,2.7,8.6s-0.7,7.2-2,10.4c-1.3,3.2-3,5.8-5.2,7.8c-2.1,2-4.6,3.6-7.3,4.7
		c-2.7,1.1-5.5,1.7-8.3,1.7c-5.7,0-10.3-1.6-13.6-4.7c-3.3-3.2-5-7.3-5-12.5c0-7,2.3-12.8,6.8-17.2c4.5-4.4,10.3-6.6,17.3-6.6
		c1.6,0,3.2,0.2,4.7,0.5c0.5,1.4,0.7,3.1,0.8,4.9C212.4,29.6,213.3,29.4,214.2,29.4z M206.1,38.5c0-1.2,0.3-2.6,0.9-4.1
		c0.6-1.5,1.5-2.8,2.9-3.7c-5.8,1.2-9.8,3.6-11.9,7c-1.9,3-2.8,6-2.8,9.2s0.6,5.7,1.9,7.6c1.3,1.9,2.9,2.9,5,2.9
		c4.5,0,7.6-2.9,9.4-8.7C207.9,46.4,206.1,43.1,206.1,38.5z"/>
</g>
</svg>
