<?xml version="1.0" encoding="utf-8"?>
<!-- Generator: Adobe Illustrator 24.1.3, SVG Export Plug-In . SVG Version: 6.00 Build 0)  -->
<svg version="1.1" id="Layer_1" xmlns="http://www.w3.org/2000/svg" xmlns:xlink="http://www.w3.org/1999/xlink" x="0px" y="0px"
	 viewBox="0 0 600 148" style="enable-background:new 0 0 600 148;" xml:space="preserve">
<style type="text/css">
	.st0{fill:#006CF6;}
	.st1{fill:#00F1CB;}
	.st2{fill:#FFFFFF;}
</style>
<g>
	<path class="st0" d="M257.4,143.4c-24.9,0-42.4-11.4-43.5-12.1l11.2-16.9c1.2,0.8,30.4,19.3,64.9-0.3l10.1,17.7
		C284.7,140.5,270.1,143.4,257.4,143.4z"/>
	<path class="st1" d="M75.9,39.5c0,18.7-14.3,31.8-32.5,31.8H31.3v27.3H8v-91h35.4C61.6,7.7,75.9,20.8,75.9,39.5z M52.6,39.5
		c0-5.7-4-9.6-9.2-9.6H31.3v19.4h12.1C48.6,49.3,52.6,45.2,52.6,39.5z"/>
	<path class="st1" d="M150.2,39.5c0,18.7-14.3,31.8-32.5,31.8h-12.1v27.3H82.4v-91h35.4C135.9,7.7,150.2,20.8,150.2,39.5z M127,39.5
		c0-5.7-4-9.6-9.2-9.6h-12.1v19.4h12.1C122.9,49.3,127,45.2,127,39.5z"/>
	<path class="st1" d="M215.2,76.8v21.8h-58.5v-91h57.9v21.7H180V42h31.3v21.4H180v13.4H215.2z"/>
	<path class="st0" d="M292.6,72c0,16.1-12.1,26.7-30.6,26.7h-38.4v-91h35.9c18.1,0,30,9.8,30,25.9c0,7.8-3.1,13.9-8.5,18.1
		C288.2,55.8,292.6,62.8,292.6,72z M247,28.5v14.3h12c4,0,7.4-2.5,7.4-7.2c0-4.4-3.3-7.1-7.4-7.1H247z M269.3,70.2
		c0-4.7-3.3-7.7-7.9-7.7H247v15.3h14.4C266.1,77.9,269.3,74.6,269.3,70.2z"/>
	<path class="st0" d="M362.5,33.7v65H341v-6.5c-3.6,5.2-10,8.3-18.1,8.3c-13.4,0-23.9-9.2-23.9-28V33.7h21.6v36.1
		c0,7,4.2,10.3,9.7,10.3c6.6,0,10.7-4,10.7-11.8V33.7H362.5z"/>
	<path class="st0" d="M439.8,7.7v91h-21.6v-6c-4.2,4.9-10.1,7.8-18.5,7.8c-17.4,0-30.6-14.8-30.6-34.3s13.1-34.3,30.6-34.3
		c8.3,0,14.3,2.9,18.5,7.8v-32H439.8z M418.2,66.2c0-8.4-5.6-14.2-13.6-14.2c-8.1,0-13.7,5.7-13.7,14.2s5.6,14.2,13.7,14.2
		C412.6,80.3,418.2,74.6,418.2,66.2z"/>
	<path class="st0" d="M517,7.7v91h-21.6v-6c-4.2,4.9-10.1,7.8-18.5,7.8c-17.4,0-30.6-14.8-30.6-34.3s13.1-34.3,30.6-34.3
		c8.3,0,14.3,2.9,18.5,7.8v-32H517z M495.4,66.2c0-8.4-5.6-14.2-13.6-14.2c-8.1,0-13.7,5.7-13.7,14.2s5.6,14.2,13.7,14.2
		C489.8,80.3,495.4,74.6,495.4,66.2z"/>
	<path class="st0" d="M592,33.7l-22.2,64c-6.9,19.8-19.2,28-39.3,27v-20.3c9.2,0,13.3-2,16.1-7.8l-26-62.9h24.2l13.1,37.7l10.1-37.7
		H592z"/>
</g>
</svg>
